<?xml version="1.0" encoding="iso-8859-1"?>
<!-- Generator: Adobe Illustrator 23.0.1, SVG Export Plug-In . SVG Version: 6.00 Build 0)  -->
<svg version="1.1" id="&#x56FE;&#x5C42;_1" xmlns="http://www.w3.org/2000/svg" xmlns:xlink="http://www.w3.org/1999/xlink" x="0px"
	 y="0px" width="32.074px" height="32.074px" viewBox="0 0 32 32" style="enable-background:new 0 0 32 32;" xml:space="preserve">
<g>
	<path style="fill:#FFFFFF;" d="M8.201,23.867c-0.289,0.011-0.24-0.154-0.214-0.315c0.09-0.57,0.173-1.141,0.265-1.711
		c0.03-0.183-0.014-0.288-0.21-0.346c-0.442-0.133-0.876-0.292-1.315-0.437c-0.137-0.045-0.263-0.093-0.308-0.253
		c-0.027-0.096-0.117-0.134-0.195-0.18c-0.269-0.161-0.534-0.33-0.811-0.477c-0.189-0.1-0.297-0.239-0.357-0.443
		c-0.183-0.625-0.379-1.247-0.569-1.87c-0.036-0.12-0.064-0.24-0.22-0.264c-0.091-0.014-0.109-0.092-0.107-0.171
		c0.002-0.091-0.001-0.183,0.016-0.271c0.056-0.295,0.031-0.539-0.316-0.64c-0.167-0.048-0.156-0.174-0.114-0.32
		c0.315-1.094,0.661-2.18,0.903-3.292c0.298-1.367,0.951-2.597,1.451-3.885c0.143-0.368,0.325-0.722,0.5-1.077
		c0.051-0.102,0.069-0.181-0.02-0.264c-0.012-0.011-0.021-0.025-0.03-0.039C6.417,7.417,6.138,7.265,6.155,7.037
		c0.022-0.295,0.184-0.597,0.386-0.815C6.977,5.75,7.113,5.191,7.18,4.581C7.209,4.322,7.19,4.122,6.97,3.98
		C6.521,3.691,6.497,3.276,6.597,2.813C6.635,2.636,6.626,2.47,6.543,2.288c-0.07-0.154-0.039-0.354-0.051-0.534
		C6.476,1.516,6.498,1.275,6.433,1.041C6.397,0.912,6.467,0.884,6.582,0.893c0.822,0.064,1.644,0.122,2.466,0.189
		c0.331,0.027,0.548,0.267,0.527,0.593c-0.018,0.275,0.01,0.562-0.159,0.81C9.361,2.564,9.431,2.61,9.492,2.634
		C9.642,2.691,9.678,2.8,9.664,2.948C9.581,3.843,9.497,4.738,9.424,5.633C9.409,5.808,9.246,5.86,9.172,6.01
		c0.236,0.033,0.466,0.007,0.688,0.066c0.281,0.074,0.563,0.14,0.773,0.36c0.074,0.078,0.142,0.059,0.221,0.017
		c0.153-0.081,0.355-0.122,0.449-0.247c0.112-0.149-0.078-0.309-0.123-0.468c-0.026-0.09-0.011-0.159,0.044-0.23
		c0.101-0.131,0.193-0.268,0.298-0.395c0.142-0.173,0.267-0.341,0.076-0.561c-0.056-0.064-0.026-0.141,0.022-0.205
		c0.098-0.133,0.195-0.267,0.295-0.397c0.024-0.032,0.067-0.079,0.093-0.075c0.304,0.058,0.294-0.187,0.344-0.36
		c0.041-0.145,0.115-0.246,0.246-0.322C12.926,3,13.266,2.836,13.63,2.721c0.831-0.262,1.584,0.038,2.355,0.296
		c1.224,0.409,1.462,1.426,1.603,2.506c0.044,0.334,0.003,0.674-0.039,1.011c-0.026,0.207-0.113,0.321-0.318,0.336
		c-0.148,0.011-0.297,0.027-0.444,0.016c-0.195-0.014-0.272,0.076-0.281,0.256c-0.007,0.157-0.014,0.314,0.037,0.466
		c0.038,0.113,0.048,0.224-0.009,0.335c-0.077,0.153-0.073,0.234,0.138,0.176c0.325-0.089,0.648-0.096,0.966,0.047
		c0.208,0.093,0.419-0.044,0.634-0.018c0.399,0.049,0.789-0.017,1.168-0.146c0.206-0.07,0.417-0.096,0.633-0.086
		c0.151,0.007,0.268-0.032,0.405-0.131c0.137-0.099,0.363-0.078,0.551-0.1c0.19-0.022,0.23-0.129,0.188-0.293
		c-0.006-0.024-0.016-0.047-0.025-0.07c-0.144-0.402-0.144-0.405,0.276-0.451c0.119-0.013,0.181-0.062,0.186-0.184
		c0.007-0.158,0.141-0.164,0.207-0.101c0.215,0.205,0.487,0.116,0.728,0.168c0.216,0.047,0.442,0.043,0.664,0.064
		c0.17,0.016,0.347,0.006,0.477,0.158c0.026,0.03,0.09,0.034,0.138,0.039c1.05,0.106,2.103,0.171,3.157,0.22
		c0.059,0.003,0.115,0.008,0.158-0.044c0.094-0.115,0.205-0.08,0.313-0.028c0.335,0.16,0.442,0.416,0.343,0.82
		c-0.05,0.203-0.436,0.455-0.691,0.436c-0.69-0.052-1.38-0.114-2.07-0.166c-0.218-0.017-0.44-0.079-0.65,0.057
		c-0.127,0.082-0.243,0.137-0.211,0.337c0.027,0.169-0.23,0.401-0.411,0.412c-0.198,0.011-0.396,0.014-0.594,0.019
		c-0.15,0.003-0.241,0.051-0.194,0.225c0.11,0.412-0.015,0.731-0.351,1c-0.296,0.236-0.554,0.518-0.837,0.771
		c-0.142,0.127-0.213,0.27-0.182,0.458c0.046,0.283-0.043,0.52-0.245,0.717c-0.117,0.114-0.136,0.247-0.067,0.385
		c0.138,0.274,0.05,0.488-0.148,0.691c-0.398,0.407-0.784,0.826-1.189,1.226c-0.188,0.186-0.32,0.397-0.403,0.642
		c-0.056,0.163-0.158,0.256-0.325,0.302c-0.254,0.07-0.494,0.175-0.736,0.281c-0.301,0.132-0.644,0.118-0.973,0.125
		c-0.131,0.003-0.211-0.12-0.303-0.201c-0.852-0.757-1.719-1.494-2.687-2.102c-0.552-0.346-0.556-0.342-0.962,0.169
		c-0.18,0.226-0.357,0.454-0.532,0.684c-0.143,0.189-0.319,0.303-0.565,0.293c-0.1-0.004-0.371,0.269-0.362,0.358
		c0.009,0.088,0.093,0.089,0.15,0.105c0.188,0.057,0.261,0.171,0.241,0.369c-0.028,0.279-0.028,0.56-0.055,0.839
		c-0.018,0.19,0.055,0.283,0.233,0.344c0.999,0.341,2.009,0.657,2.987,1.052c0.459,0.185,0.967,0.281,1.369,0.603
		c0.399,0.321,0.798,0.64,1.197,0.96c0.039,0.031,0.071,0.071,0.113,0.096c0.711,0.422,0.874,1.134,0.925,1.867
		c0.028,0.406,0.164,0.788,0.175,1.195c0.008,0.316-0.098,0.525-0.332,0.743c-0.536,0.5-1.148,0.745-1.868,0.655
		c-0.681-0.085-1.337,0.046-2.002,0.14c-0.179,0.026-0.305,0.101-0.422,0.224c-0.897,0.934-1.799,1.864-2.693,2.802
		c-0.135,0.142-0.272,0.22-0.472,0.209c-0.254-0.013-0.48,0.05-0.669,0.249c-0.187,0.197-0.394,0.377-0.609,0.543
		c-0.218,0.169-0.32,0.403-0.384,0.647c-0.216,0.832-0.784,1.414-1.371,1.986c-0.09,0.088-0.181,0.121-0.31,0.093
		c-0.371-0.08-0.743-0.152-1.117-0.215c-0.186-0.031-0.192-0.146-0.172-0.289c0.076-0.563,0.151-1.127,0.228-1.69
		c0.038-0.278,0.075-0.556,0.116-0.833c0.026-0.175-0.029-0.269-0.221-0.261c-0.073,0.003-0.147-0.017-0.22-0.029
		c-0.299-0.047-0.397-0.315-0.195-0.552c0.171-0.201,0.35-0.396,0.533-0.586c0.108-0.112,0.166-0.233,0.177-0.393
		c0.024-0.361,0.04-0.724,0.122-1.08C7.695,24.506,7.823,24.138,8.201,23.867z M20.085,10.021c-0.226-0.066-0.364,0.04-0.481,0.215
		c-0.053,0.079-0.14,0.138-0.219,0.196c-0.259,0.19-0.521,0.375-0.707,0.646c-0.073,0.106-0.177,0.159-0.306,0.188
		c-0.482,0.107-0.961,0.225-1.441,0.342c-0.069,0.017-0.169,0.008-0.188,0.089c-0.019,0.079,0.072,0.121,0.122,0.172
		c0.19,0.194,0.384,0.385,0.576,0.577c0.309,0.309,0.315,0.312,0.554-0.045c0.388-0.581,0.741-1.191,1.376-1.553
		c0.065-0.037,0.109-0.1,0.133-0.173c0.032-0.097,0.098-0.141,0.199-0.156c0.13-0.019,0.257-0.055,0.386-0.079
		c0.193-0.036,0.259-0.207,0.258-0.345C20.346,9.955,20.17,10.051,20.085,10.021z"/>
</g>
</svg>
