<?xml version="1.0" encoding="iso-8859-1"?>
<!-- Generator: Adobe Illustrator 23.0.1, SVG Export Plug-In . SVG Version: 6.00 Build 0)  -->
<svg version="1.1" id="&#x56FE;&#x5C42;_1" xmlns="http://www.w3.org/2000/svg" xmlns:xlink="http://www.w3.org/1999/xlink" x="0px"
	 y="0px"   width="32.074px" height="32.074px" viewBox="0 0 32 32" style="enable-background:new 0 0 32 32;" xml:space="preserve">
<path style="fill:#FFFFFF;" d="M18.149,8.103l0.657,0.717c0,0-19.879,6.933-5.291,8.172l1.764-1.43l2.719,5.528L5.582,24.897
	l2.447-2.719C8.029,22.178-8.177,15.305,18.149,8.103z"/>
<g>
	<path style="fill:#FFFFFF;stroke:#000000;stroke-width:0.1;stroke-miterlimit:10;" d="M8.57,16.364l0.701-0.946
		c0.448,0.438,0.996,0.774,1.677,0.774c0.763,0,1.281-0.376,1.281-1.048c0-0.742-0.437-1.198-2.074-1.198v-1.079
		c1.383,0,1.83-0.477,1.83-1.148c0-0.59-0.367-0.935-1.007-0.946c-0.539,0.01-0.976,0.265-1.423,0.671l-0.763-0.915
		c0.651-0.568,1.372-0.925,2.257-0.925c1.454,0,2.44,0.713,2.44,2.004c0,0.812-0.458,1.402-1.261,1.718v0.051
		c0.854,0.234,1.504,0.865,1.504,1.851c0,1.382-1.209,2.184-2.643,2.184C9.902,17.411,9.098,16.964,8.57,16.364z"/>
	<path style="fill:#FFFFFF;stroke:#000000;stroke-width:0.1;stroke-miterlimit:10;" d="M18.952,11.353
		c-0.265-0.305-0.721-0.549-1.16-0.549c-0.863,0-1.575,0.651-1.637,2.532c0.407-0.499,1.057-0.804,1.546-0.804
		c1.261,0,2.156,0.753,2.156,2.37c0,1.544-1.079,2.51-2.36,2.51c-1.433,0-2.704-1.148-2.704-3.801c0-2.806,1.393-4.006,2.908-4.006
		c0.915,0,1.586,0.388,2.043,0.855L18.952,11.353z M18.483,14.901c0-0.895-0.416-1.311-1.067-1.311c-0.406,0-0.854,0.212-1.23,0.792
		c0.142,1.372,0.65,1.901,1.28,1.901C18.027,16.283,18.483,15.817,18.483,14.901z"/>
	<path style="fill:#FFFFFF;stroke:#000000;stroke-width:0.1;stroke-miterlimit:10;" d="M20.712,13.477
		c0-2.602,1.016-3.873,2.552-3.873c1.525,0,2.542,1.281,2.542,3.873s-1.016,3.934-2.542,3.934
		C21.729,17.411,20.712,16.069,20.712,13.477z M24.394,13.477c0-2.104-0.489-2.714-1.129-2.714c-0.651,0-1.138,0.61-1.138,2.714
		c0,2.115,0.487,2.766,1.138,2.766C23.905,16.243,24.394,15.592,24.394,13.477z"/>
	<path style="fill:#FFFFFF;stroke:#000000;stroke-width:0.1;stroke-miterlimit:10;" d="M26.703,10.977
		c0-0.946,0.723-1.616,1.596-1.616c0.895,0,1.606,0.671,1.606,1.616c0,0.946-0.711,1.606-1.606,1.606
		C27.426,12.584,26.703,11.923,26.703,10.977z M29.103,10.977c0-0.519-0.325-0.875-0.804-0.875c-0.467,0-0.792,0.356-0.792,0.875
		c0,0.507,0.325,0.863,0.792,0.863C28.778,11.84,29.103,11.485,29.103,10.977z"/>
</g>
<path style="opacity:0.95;fill:#FFFFFF;" d="M7.063,12.854l2.834-0.21c0,0-6.27,3.587,3.619,4.348l1.764-1.43l2.719,5.528
	L5.582,24.897l2.447-2.719C8.029,22.178,2.372,15.663,7.063,12.854z"/>
</svg>
